<svg width="32" height="32" viewBox="0 0 32 32" fill="none" xmlns="http://www.w3.org/2000/svg">
<path d="M16 13.7067C14.64 13.7067 13.28 13.4667 11.9867 13.0001C11.4667 12.8134 11.2 12.2401 11.3867 11.7201C11.5867 11.2001 12.16 10.9334 12.68 11.1201C14.8267 11.8934 17.1867 11.8934 19.3333 11.1201C19.8533 10.9334 20.4267 11.2001 20.6133 11.7201C20.8 12.2401 20.5333 12.8134 20.0133 13.0001C18.72 13.4667 17.36 13.7067 16 13.7067Z" fill="#428AF6"/>
<path d="M25.4267 30.3332C24.7467 30.3332 24 30.1332 23.28 29.7198L16.7734 26.1065C16.3867 25.8932 15.6267 25.8932 15.24 26.1065L8.73336 29.7198C7.41336 30.4532 6.0667 30.5332 5.04003 29.9198C4.01336 29.3198 3.4267 28.1065 3.4267 26.5998V7.81317C3.4267 4.4265 6.1867 1.6665 9.57336 1.6665H22.44C25.8267 1.6665 28.5867 4.4265 28.5867 7.81317V26.5998C28.5867 28.1065 28 29.3198 26.9734 29.9198C26.5067 30.1998 25.9734 30.3332 25.4267 30.3332ZM16 23.9465C16.6267 23.9465 17.24 24.0798 17.7334 24.3598L24.24 27.9732C24.92 28.3598 25.5467 28.4398 25.9467 28.1998C26.3467 27.9598 26.5734 27.3865 26.5734 26.5998V7.81317C26.5734 5.53317 24.7067 3.6665 22.4267 3.6665H9.57336C7.29336 3.6665 5.4267 5.53317 5.4267 7.81317V26.5998C5.4267 27.3865 5.65336 27.9732 6.05336 28.1998C6.45336 28.4265 7.0667 28.3598 7.76003 27.9732L14.2667 24.3598C14.76 24.0798 15.3734 23.9465 16 23.9465Z" fill="#428AF6"/>
<path d="M25.4267 30.3332C24.7467 30.3332 24 30.1332 23.28 29.7198L16.7734 26.1065C16.3867 25.8932 15.6267 25.8932 15.24 26.1065L8.73336 29.7198C7.41336 30.4532 6.0667 30.5332 5.04003 29.9198C4.01336 29.3198 3.4267 28.1065 3.4267 26.5998V7.81317C3.4267 4.4265 6.1867 1.6665 9.57336 1.6665H22.44C25.8267 1.6665 28.5867 4.4265 28.5867 7.81317V26.5998C28.5867 28.1065 28 29.3198 26.9734 29.9198C26.5067 30.1998 25.9734 30.3332 25.4267 30.3332ZM16 23.9465C16.6267 23.9465 17.24 24.0798 17.7334 24.3598L24.24 27.9732C24.92 28.3598 25.5467 28.4398 25.9467 28.1998C26.3467 27.9598 26.5734 27.3865 26.5734 26.5998V7.81317C26.5734 5.53317 24.7067 3.6665 22.4267 3.6665H9.57336C7.29336 3.6665 5.4267 5.53317 5.4267 7.81317V26.5998C5.4267 27.3865 5.65336 27.9732 6.05336 28.1998C6.45336 28.4265 7.0667 28.3598 7.76003 27.9732L14.2667 24.3598C14.76 24.0798 15.3734 23.9465 16 23.9465Z" fill="#428AF6"/>
</svg>
