<svg width="32" height="32" viewBox="0 0 32 32" fill="none" xmlns="http://www.w3.org/2000/svg">
<path d="M29.3333 12.3335H2.66666C2.11999 12.3335 1.66666 11.8802 1.66666 11.3335C1.66666 10.7868 2.11999 10.3335 2.66666 10.3335H29.3333C29.88 10.3335 30.3333 10.7868 30.3333 11.3335C30.3333 11.8802 29.88 12.3335 29.3333 12.3335Z" fill="#428AF6"/>
<path d="M10.6667 23H8C7.45333 23 7 22.5467 7 22C7 21.4533 7.45333 21 8 21H10.6667C11.2133 21 11.6667 21.4533 11.6667 22C11.6667 22.5467 11.2133 23 10.6667 23Z" fill="#428AF6"/>
<path d="M19.3333 23H14C13.4533 23 13 22.5467 13 22C13 21.4533 13.4533 21 14 21H19.3333C19.88 21 20.3333 21.4533 20.3333 22C20.3333 22.5467 19.88 23 19.3333 23Z" fill="#428AF6"/>
<path d="M23.4133 28.3332H8.58666C3.27999 28.3332 1.66666 26.7332 1.66666 21.4798V10.5198C1.66666 5.2665 3.27999 3.6665 8.58666 3.6665H23.4C28.7067 3.6665 30.32 5.2665 30.32 10.5198V21.4665C30.3333 26.7332 28.72 28.3332 23.4133 28.3332ZM8.58666 5.6665C4.39999 5.6665 3.66666 6.3865 3.66666 10.5198V21.4665C3.66666 25.5998 4.39999 26.3198 8.58666 26.3198H23.4C27.5867 26.3198 28.32 25.5998 28.32 21.4665V10.5198C28.32 6.3865 27.5867 5.6665 23.4 5.6665H8.58666Z" fill="#428AF6"/>
</svg>
