<svg width="32" height="32" viewBox="0 0 32 32" fill="none" xmlns="http://www.w3.org/2000/svg">
<path d="M28 30.3335H4C3.45333 30.3335 3 29.8802 3 29.3335C3 28.7868 3.45333 28.3335 4 28.3335H28C28.5467 28.3335 29 28.7868 29 29.3335C29 29.8802 28.5467 30.3335 28 30.3335Z" fill="#428AF6"/>
<path d="M7.46663 26.3333H5.33333C4.05333 26.3333 3 25.28 3 24V12.5067C3 11.2267 4.05333 10.1733 5.33333 10.1733H7.46663C8.74663 10.1733 9.79997 11.2267 9.79997 12.5067V24C9.79997 25.28 8.74663 26.3333 7.46663 26.3333ZM5.33333 12.16C5.14667 12.16 5 12.3067 5 12.4933V24C5 24.1867 5.14667 24.3333 5.33333 24.3333H7.46663C7.6533 24.3333 7.79997 24.1867 7.79997 24V12.5067C7.79997 12.32 7.6533 12.1733 7.46663 12.1733H5.33333V12.16Z" fill="#428AF6"/>
<path d="M17.0669 26.3333H14.9336C13.6536 26.3333 12.6003 25.2799 12.6003 23.9999V8.25326C12.6003 6.97326 13.6536 5.91992 14.9336 5.91992H17.0669C18.3469 5.91992 19.4002 6.97326 19.4002 8.25326V23.9999C19.4002 25.2799 18.3469 26.3333 17.0669 26.3333ZM14.9336 7.91992C14.7469 7.91992 14.6003 8.06659 14.6003 8.25326V23.9999C14.6003 24.1866 14.7469 24.3333 14.9336 24.3333H17.0669C17.2536 24.3333 17.4002 24.1866 17.4002 23.9999V8.25326C17.4002 8.06659 17.2536 7.91992 17.0669 7.91992H14.9336Z" fill="#428AF6"/>
<path d="M26.6665 26.3332H24.5332C23.2532 26.3332 22.1999 25.2798 22.1999 23.9998V3.99984C22.1999 2.71984 23.2532 1.6665 24.5332 1.6665H26.6665C27.9465 1.6665 28.9999 2.71984 28.9999 3.99984V23.9998C28.9999 25.2798 27.9465 26.3332 26.6665 26.3332ZM24.5332 3.6665C24.3466 3.6665 24.1999 3.81317 24.1999 3.99984V23.9998C24.1999 24.1865 24.3466 24.3332 24.5332 24.3332H26.6665C26.8532 24.3332 26.9999 24.1865 26.9999 23.9998V3.99984C26.9999 3.81317 26.8532 3.6665 26.6665 3.6665H24.5332Z" fill="#428AF6"/>
</svg>
