<svg width="32" height="32" viewBox="0 0 32 32" fill="none" xmlns="http://www.w3.org/2000/svg">
<path d="M20 30.3332H12C4.76002 30.3332 1.66669 27.2398 1.66669 19.9998V11.9998C1.66669 4.75984 4.76002 1.6665 12 1.6665H18.6667C19.2134 1.6665 19.6667 2.11984 19.6667 2.6665C19.6667 3.21317 19.2134 3.6665 18.6667 3.6665H12C5.85335 3.6665 3.66669 5.85317 3.66669 11.9998V19.9998C3.66669 26.1465 5.85335 28.3332 12 28.3332H20C26.1467 28.3332 28.3334 26.1465 28.3334 19.9998V13.3332C28.3334 12.7865 28.7867 12.3332 29.3334 12.3332C29.88 12.3332 30.3334 12.7865 30.3334 13.3332V19.9998C30.3334 27.2398 27.24 30.3332 20 30.3332Z" fill="#428AF6"/>
<path d="M29.3334 14.3332H24C19.44 14.3332 17.6667 12.5598 17.6667 7.99982V2.66649C17.6667 2.26649 17.9067 1.89316 18.28 1.74649C18.6534 1.58649 19.08 1.67982 19.3734 1.95982L30.04 12.6265C30.32 12.9065 30.4134 13.3465 30.2534 13.7198C30.0934 14.0932 29.7334 14.3332 29.3334 14.3332ZM19.6667 5.07982V7.99982C19.6667 11.4398 20.56 12.3332 24 12.3332H26.92L19.6667 5.07982Z" fill="#428AF6"/>
<path d="M17.3333 18.3335H9.33331C8.78665 18.3335 8.33331 17.8802 8.33331 17.3335C8.33331 16.7868 8.78665 16.3335 9.33331 16.3335H17.3333C17.88 16.3335 18.3333 16.7868 18.3333 17.3335C18.3333 17.8802 17.88 18.3335 17.3333 18.3335Z" fill="#428AF6"/>
<path d="M14.6666 23.6665H9.33331C8.78665 23.6665 8.33331 23.2132 8.33331 22.6665C8.33331 22.1198 8.78665 21.6665 9.33331 21.6665H14.6666C15.2133 21.6665 15.6666 22.1198 15.6666 22.6665C15.6666 23.2132 15.2133 23.6665 14.6666 23.6665Z" fill="#428AF6"/>
</svg>
