<svg width="32" height="32" viewBox="0 0 32 32" fill="none" xmlns="http://www.w3.org/2000/svg">
<path d="M20 30.3332H12C4.75999 30.3332 1.66666 27.2398 1.66666 19.9998V11.9998C1.66666 4.75984 4.75999 1.6665 12 1.6665H20C27.24 1.6665 30.3333 4.75984 30.3333 11.9998V19.9998C30.3333 27.2398 27.24 30.3332 20 30.3332ZM12 3.6665C5.85332 3.6665 3.66666 5.85317 3.66666 11.9998V19.9998C3.66666 26.1465 5.85332 28.3332 12 28.3332H20C26.1467 28.3332 28.3333 26.1465 28.3333 19.9998V11.9998C28.3333 5.85317 26.1467 3.6665 20 3.6665H12Z" fill="#428AF6"/>
<path d="M21 13H11C10.4533 13 10 12.5467 10 12C10 11.4533 10.4533 11 11 11H21C21.5467 11 22 11.4533 22 12C22 12.5467 21.5467 13 21 13Z" fill="#428AF6"/>
<path d="M21 21H11C10.4533 21 10 20.5467 10 20C10 19.4533 10.4533 19 11 19H21C21.5467 19 22 19.4533 22 20C22 20.5467 21.5467 21 21 21Z" fill="#428AF6"/>
</svg>
