<svg width="32" height="32" viewBox="0 0 32 32" fill="none" xmlns="http://www.w3.org/2000/svg">
<path d="M12.6267 20.3732C12.3734 20.3732 12.12 20.2799 11.92 20.0799C10.8267 18.9866 10.2267 17.5332 10.2267 15.9999C10.2267 12.8132 12.8134 10.2266 16 10.2266C17.5334 10.2266 18.9867 10.8266 20.08 11.9199C20.2667 12.1066 20.3734 12.3599 20.3734 12.6266C20.3734 12.8932 20.2667 13.1466 20.08 13.3332L13.3334 20.0799C13.1334 20.2799 12.88 20.3732 12.6267 20.3732ZM16 12.2266C13.92 12.2266 12.2267 13.9199 12.2267 15.9999C12.2267 16.6666 12.4 17.3066 12.72 17.8666L17.8667 12.7199C17.3067 12.3999 16.6667 12.2266 16 12.2266Z" fill="#428AF6"/>
<path d="M7.46667 24.6798C7.24001 24.6798 7.00001 24.5998 6.81334 24.4398C5.38667 23.2265 4.10667 21.7331 3.01334 19.9998C1.60001 17.7998 1.60001 14.2131 3.01334 11.9998C6.26667 6.90648 11 3.97314 16 3.97314C18.9333 3.97314 21.8267 4.98648 24.36 6.89314C24.8 7.22648 24.8933 7.85314 24.56 8.29314C24.2267 8.73314 23.6 8.82648 23.16 8.49314C20.9733 6.83981 18.4933 5.97314 16 5.97314C11.6933 5.97314 7.57334 8.55981 4.69334 13.0798C3.69334 14.6398 3.69334 17.3598 4.69334 18.9198C5.69334 20.4798 6.84001 21.8265 8.10667 22.9198C8.52001 23.2798 8.57334 23.9065 8.21334 24.3331C8.02667 24.5598 7.74667 24.6798 7.46667 24.6798Z" fill="#428AF6"/>
<path d="M16 28.0268C14.2266 28.0268 12.4933 27.6668 10.8266 26.9602C10.32 26.7468 10.08 26.1602 10.2933 25.6535C10.5066 25.1468 11.0933 24.9068 11.6 25.1202C13.0133 25.7202 14.4933 26.0268 15.9866 26.0268C20.2933 26.0268 24.4133 23.4402 27.2933 18.9202C28.2933 17.3602 28.2933 14.6402 27.2933 13.0802C26.88 12.4268 26.4266 11.8002 25.9466 11.2135C25.6 10.7868 25.6666 10.1602 26.0933 9.80016C26.52 9.45349 27.1466 9.50683 27.5066 9.94683C28.0266 10.5868 28.5333 11.2802 28.9866 12.0002C30.4 14.2002 30.4 17.7868 28.9866 20.0002C25.7333 25.0935 21 28.0268 16 28.0268Z" fill="#428AF6"/>
<path d="M16.92 21.6933C16.4533 21.6933 16.0267 21.36 15.9333 20.88C15.8267 20.3333 16.1867 19.8133 16.7333 19.72C18.2 19.4533 19.4267 18.2266 19.6933 16.76C19.8 16.2133 20.32 15.8666 20.8667 15.96C21.4133 16.0666 21.7733 16.5866 21.6667 17.1333C21.24 19.44 19.4 21.2666 17.1067 21.6933C17.04 21.68 16.9867 21.6933 16.92 21.6933Z" fill="#428AF6"/>
<path d="M2.66668 30.3331C2.41335 30.3331 2.16001 30.2398 1.96001 30.0398C1.57335 29.6531 1.57335 29.0131 1.96001 28.6265L11.92 18.6665C12.3067 18.2798 12.9467 18.2798 13.3333 18.6665C13.72 19.0531 13.72 19.6931 13.3333 20.0798L3.37335 30.0398C3.17335 30.2398 2.92001 30.3331 2.66668 30.3331Z" fill="#428AF6"/>
<path d="M19.3733 13.6266C19.12 13.6266 18.8666 13.5333 18.6666 13.3333C18.28 12.9466 18.28 12.3066 18.6666 11.9199L28.6266 1.95992C29.0133 1.57326 29.6533 1.57326 30.04 1.95992C30.4266 2.34659 30.4266 2.98659 30.04 3.37326L20.08 13.3333C19.88 13.5333 19.6266 13.6266 19.3733 13.6266Z" fill="#428AF6"/>
</svg>
