<svg width="32" height="32" viewBox="0 0 32 32" fill="none" xmlns="http://www.w3.org/2000/svg">
<path d="M16 21.7732C12.8134 21.7732 10.2267 19.1866 10.2267 15.9999C10.2267 12.8132 12.8134 10.2266 16 10.2266C19.1867 10.2266 21.7734 12.8132 21.7734 15.9999C21.7734 19.1866 19.1867 21.7732 16 21.7732ZM16 12.2266C13.92 12.2266 12.2267 13.9199 12.2267 15.9999C12.2267 18.0799 13.92 19.7732 16 19.7732C18.08 19.7732 19.7734 18.0799 19.7734 15.9999C19.7734 13.9199 18.08 12.2266 16 12.2266Z" fill="#428AF6"/>
<path d="M16 28.0265C10.9867 28.0265 6.25334 25.0931 3 19.9998C1.58667 17.7998 1.58667 14.2131 3 11.9998C6.26667 6.90648 11 3.97314 16 3.97314C21 3.97314 25.7333 6.90648 28.9867 11.9998C30.4 14.1998 30.4 17.7865 28.9867 19.9998C25.7333 25.0931 21 28.0265 16 28.0265ZM16 5.97314C11.6933 5.97314 7.57334 8.55981 4.69334 13.0798C3.69334 14.6398 3.69334 17.3598 4.69334 18.9198C7.57334 23.4398 11.6933 26.0265 16 26.0265C20.3067 26.0265 24.4267 23.4398 27.3067 18.9198C28.3067 17.3598 28.3067 14.6398 27.3067 13.0798C24.4267 8.55981 20.3067 5.97314 16 5.97314Z" fill="#428AF6"/>
</svg>
