<svg width="32" height="32" viewBox="0 0 32 32" fill="none" xmlns="http://www.w3.org/2000/svg">
<path d="M22.6667 30.3332H9.33332C3.45332 30.3332 1.66666 28.5465 1.66666 22.6665V9.33317C1.66666 3.45317 3.45332 1.6665 9.33332 1.6665H11.3333C13.6667 1.6665 14.4 2.4265 15.3333 3.6665L17.3333 6.33317C17.7733 6.91984 17.84 6.99984 18.6667 6.99984H22.6667C28.5467 6.99984 30.3333 8.7865 30.3333 14.6665V22.6665C30.3333 28.5465 28.5467 30.3332 22.6667 30.3332ZM9.33332 3.6665C4.57332 3.6665 3.66666 4.57317 3.66666 9.33317V22.6665C3.66666 27.4265 4.57332 28.3332 9.33332 28.3332H22.6667C27.4267 28.3332 28.3333 27.4265 28.3333 22.6665V14.6665C28.3333 9.9065 27.4267 8.99984 22.6667 8.99984H18.6667C16.96 8.99984 16.4 8.41317 15.7333 7.53317L13.7333 4.8665C13.04 3.9465 12.84 3.6665 11.3333 3.6665H9.33332V3.6665Z" fill="#428AF6"/>
</svg>
