<svg width="32" height="32" viewBox="0 0 32 32" fill="none" xmlns="http://www.w3.org/2000/svg">
<path d="M20 30.3332H12C4.76002 30.3332 1.66669 27.2398 1.66669 19.9998V11.9998C1.66669 4.75984 4.76002 1.6665 12 1.6665H20C27.24 1.6665 30.3334 4.75984 30.3334 11.9998V19.9998C30.3334 27.2398 27.24 30.3332 20 30.3332ZM12 3.6665C5.85335 3.6665 3.66669 5.85317 3.66669 11.9998V19.9998C3.66669 26.1465 5.85335 28.3332 12 28.3332H20C26.1467 28.3332 28.3334 26.1465 28.3334 19.9998V11.9998C28.3334 5.85317 26.1467 3.6665 20 3.6665H12Z" fill="#428AF6"/>
<path d="M12 14.3333C9.97331 14.3333 8.33331 12.6933 8.33331 10.6667C8.33331 8.64 9.97331 7 12 7C14.0266 7 15.6666 8.64 15.6666 10.6667C15.6666 12.6933 14.0266 14.3333 12 14.3333ZM12 9C11.08 9 10.3333 9.74667 10.3333 10.6667C10.3333 11.5867 11.08 12.3333 12 12.3333C12.92 12.3333 13.6666 11.5867 13.6666 10.6667C13.6666 9.74667 12.92 9 12 9Z" fill="#428AF6"/>
<path d="M3.55998 26.2666C3.23998 26.2666 2.91998 26.1066 2.73331 25.8266C2.42665 25.3733 2.54665 24.7466 3.01331 24.4399L9.58665 20.0266C11.0266 19.0532 13.0133 19.1732 14.32 20.2799L14.76 20.6666C15.4266 21.2399 16.56 21.2399 17.2133 20.6666L22.76 15.9066C24.1733 14.6932 26.4 14.6932 27.8266 15.9066L30 17.7732C30.4133 18.1332 30.4666 18.7599 30.1066 19.1866C29.7466 19.5999 29.12 19.6532 28.6933 19.2932L26.52 17.4266C25.8533 16.8532 24.72 16.8532 24.0533 17.4266L18.5066 22.1866C17.0933 23.3999 14.8666 23.3999 13.44 22.1866L13 21.7999C12.3866 21.2799 11.3733 21.2266 10.6933 21.6932L4.11998 26.1066C3.94665 26.2132 3.74665 26.2666 3.55998 26.2666Z" fill="#428AF6"/>
</svg>
