<svg width="32" height="32" viewBox="0 0 32 32" fill="none" xmlns="http://www.w3.org/2000/svg">
<path d="M8.24 30.3334C8.10667 30.3334 7.96 30.3201 7.84 30.3067L4.94667 29.9067C3.56 29.7201 2.30667 28.4801 2.09333 27.0667L1.69333 24.1467C1.56 23.2134 1.96 22.0001 2.62667 21.3201L8.48 15.4667C7.53333 11.6801 8.62667 7.68006 11.4133 4.92006C15.7333 0.613394 22.76 0.60006 27.0933 4.92006C29.1867 7.01339 30.3333 9.80006 30.3333 12.7601C30.3333 15.7201 29.1867 18.5067 27.0933 20.6001C24.2933 23.3734 20.3067 24.4667 16.5467 23.5067L10.68 29.3601C10.12 29.9467 9.12 30.3334 8.24 30.3334ZM19.24 3.68006C16.9067 3.68006 14.5867 4.56006 12.8133 6.33339C10.4133 8.72006 9.54667 12.2134 10.5467 15.4667C10.6533 15.8267 10.56 16.2001 10.2933 16.4667L4.02667 22.7334C3.8 22.9601 3.61333 23.5467 3.65333 23.8534L4.05333 26.7734C4.13333 27.2801 4.68 27.8534 5.18667 27.9201L8.09333 28.3201C8.41333 28.3734 9 28.1867 9.22667 27.9601L15.52 21.6801C15.7867 21.4134 16.1733 21.3334 16.52 21.4401C19.7333 22.4534 23.24 21.5867 25.64 19.1867C27.3467 17.4801 28.2933 15.1867 28.2933 12.7601C28.2933 10.3201 27.3467 8.04006 25.64 6.33339C23.9067 4.57339 21.5733 3.68006 19.24 3.68006Z" fill="#428AF6"/>
<path d="M12.2533 27.3866C12 27.3866 11.7467 27.2932 11.5467 27.0932L8.48 24.0266C8.09334 23.6399 8.09334 22.9999 8.48 22.6132C8.86667 22.2266 9.50667 22.2266 9.89334 22.6132L12.96 25.6799C13.3467 26.0666 13.3467 26.7066 12.96 27.0932C12.76 27.2932 12.5067 27.3866 12.2533 27.3866Z" fill="#428AF6"/>
<path d="M19.3333 15.6665C17.68 15.6665 16.3333 14.3198 16.3333 12.6665C16.3333 11.0132 17.68 9.6665 19.3333 9.6665C20.9866 9.6665 22.3333 11.0132 22.3333 12.6665C22.3333 14.3198 20.9866 15.6665 19.3333 15.6665ZM19.3333 11.6665C18.7866 11.6665 18.3333 12.1198 18.3333 12.6665C18.3333 13.2132 18.7866 13.6665 19.3333 13.6665C19.88 13.6665 20.3333 13.2132 20.3333 12.6665C20.3333 12.1198 19.88 11.6665 19.3333 11.6665Z" fill="#428AF6"/>
</svg>
