<svg width="32" height="32" viewBox="0 0 32 32" fill="none" xmlns="http://www.w3.org/2000/svg">
<path d="M16 30.3335C15.0667 30.3335 14.12 29.9735 13.4133 29.2668L11.1333 27.0135C10.5733 26.4535 9.80001 26.1468 9.01335 26.1468H8C5.24 26.1468 3 23.9202 3 21.1868V6.64014C3 3.9068 5.24 1.68018 8 1.68018H24C26.76 1.68018 29 3.9068 29 6.64014V21.1868C29 23.9202 26.76 26.1468 24 26.1468H22.9867C22.2 26.1468 21.4267 26.4668 20.8667 27.0135L18.5867 29.2668C17.88 29.9735 16.9333 30.3335 16 30.3335ZM8 3.66683C6.34667 3.66683 5 5.00012 5 6.62679V21.1735C5 22.8135 6.34667 24.1335 8 24.1335H9.01335C10.3333 24.1335 11.6133 24.6668 12.5467 25.5868L14.8267 27.8402C15.48 28.4802 16.5334 28.4802 17.1867 27.8402L19.4667 25.5868C20.4 24.6668 21.68 24.1335 23 24.1335H24C25.6533 24.1335 27 22.8002 27 21.1735V6.62679C27 4.98679 25.6533 3.66683 24 3.66683H8Z" fill="#428AF6"/>
<path d="M15.9997 21.0002C15.7597 21.0002 15.5197 20.9601 15.3063 20.8935C13.5463 20.2935 9.013 17.6402 9.013 12.6802C9.013 10.2802 10.9597 8.3335 13.3463 8.3335C14.3197 8.3335 15.253 8.66683 16.013 9.2535C16.773 8.66683 17.7063 8.3335 18.6797 8.3335C21.0663 8.3335 23.013 10.2802 23.013 12.6802C23.013 17.6402 18.4663 20.2935 16.7197 20.8935C16.4797 20.9601 16.2397 21.0002 15.9997 21.0002ZM13.333 10.3335C12.053 10.3335 10.9997 11.3868 10.9997 12.6802C10.9997 16.4535 14.6663 18.5602 15.9463 19.0002C15.9596 19.0002 16.013 19.0002 16.053 19.0002C17.3463 18.5468 20.9863 16.4402 20.9863 12.6935C20.9863 11.4002 19.9463 10.3468 18.653 10.3468C17.9196 10.3468 17.2396 10.6935 16.7863 11.2802C16.413 11.7869 15.5597 11.7869 15.1863 11.2802C14.7597 10.6802 14.0797 10.3335 13.333 10.3335Z" fill="#428AF6"/>
</svg>
