<svg width="32" height="32" viewBox="0 0 32 32" fill="none" xmlns="http://www.w3.org/2000/svg">
<path d="M16 18.8931C13.16 18.8931 10.84 16.5864 10.84 13.7331C10.84 10.8798 13.16 8.58643 16 8.58643C18.84 8.58643 21.16 10.8931 21.16 13.7464C21.16 16.5998 18.84 18.8931 16 18.8931ZM16 10.5864C14.2667 10.5864 12.84 11.9998 12.84 13.7464C12.84 15.4931 14.2534 16.9064 16 16.9064C17.7467 16.9064 19.16 15.4931 19.16 13.7464C19.16 11.9998 17.7334 10.5864 16 10.5864Z" fill="#428AF6"/>
<path d="M16 30.3465C14.0267 30.3465 12.04 29.5998 10.4933 28.1198C6.55999 24.3332 2.21332 18.2932 3.85332 11.1065C5.33332 4.5865 11.0267 1.6665 16 1.6665C16 1.6665 16 1.6665 16.0133 1.6665C20.9867 1.6665 26.68 4.5865 28.16 11.1198C29.7867 18.3065 25.44 24.3332 21.5067 28.1198C19.96 29.5998 17.9733 30.3465 16 30.3465ZM16 3.6665C12.12 3.6665 7.13332 5.73317 5.81332 11.5465C4.37332 17.8265 8.31999 23.2398 11.8933 26.6665C14.2 28.8932 17.8133 28.8932 20.12 26.6665C23.68 23.2398 27.6267 17.8265 26.2133 11.5465C24.88 5.73317 19.88 3.6665 16 3.6665Z" fill="#428AF6"/>
</svg>
