<svg width="32" height="32" viewBox="0 0 32 32" fill="none" xmlns="http://www.w3.org/2000/svg">
<path d="M24 14.3332C23.4533 14.3332 23 13.8798 23 13.3332V10.6665C23 6.4665 21.8133 3.6665 16 3.6665C10.1867 3.6665 9 6.4665 9 10.6665V13.3332C9 13.8798 8.54667 14.3332 8 14.3332C7.45333 14.3332 7 13.8798 7 13.3332V10.6665C7 6.79984 7.93333 1.6665 16 1.6665C24.0667 1.6665 25 6.79984 25 10.6665V13.3332C25 13.8798 24.5467 14.3332 24 14.3332Z" fill="#428AF6"/>
<path d="M16 25.6667C13.6133 25.6667 11.6667 23.72 11.6667 21.3333C11.6667 18.9467 13.6133 17 16 17C18.3867 17 20.3333 18.9467 20.3333 21.3333C20.3333 23.72 18.3867 25.6667 16 25.6667ZM16 19C14.72 19 13.6667 20.0533 13.6667 21.3333C13.6667 22.6133 14.72 23.6667 16 23.6667C17.28 23.6667 18.3333 22.6133 18.3333 21.3333C18.3333 20.0533 17.28 19 16 19Z" fill="#428AF6"/>
<path d="M22.6667 30.3335H9.33332C3.45332 30.3335 1.66666 28.5468 1.66666 22.6668V20.0002C1.66666 14.1202 3.45332 12.3335 9.33332 12.3335H22.6667C28.5467 12.3335 30.3333 14.1202 30.3333 20.0002V22.6668C30.3333 28.5468 28.5467 30.3335 22.6667 30.3335ZM9.33332 14.3335C4.55999 14.3335 3.66666 15.2402 3.66666 20.0002V22.6668C3.66666 27.4268 4.55999 28.3335 9.33332 28.3335H22.6667C27.44 28.3335 28.3333 27.4268 28.3333 22.6668V20.0002C28.3333 15.2402 27.44 14.3335 22.6667 14.3335H9.33332Z" fill="#428AF6"/>
</svg>
