<svg width="32" height="32" viewBox="0 0 32 32" fill="none" xmlns="http://www.w3.org/2000/svg">
<path d="M16 30.4132C15.08 30.4132 14.2134 29.9465 13.6 29.1332L11.6 26.4665C11.56 26.4132 11.4 26.3465 11.3334 26.3332H10.6667C5.10669 26.3332 1.66669 24.8265 1.66669 17.3332V10.6665C1.66669 4.77317 4.77335 1.6665 10.6667 1.6665H21.3334C27.2267 1.6665 30.3334 4.77317 30.3334 10.6665V17.3332C30.3334 23.2265 27.2267 26.3332 21.3334 26.3332H20.6667C20.56 26.3332 20.4667 26.3865 20.4 26.4665L18.4 29.1332C17.7867 29.9465 16.92 30.4132 16 30.4132ZM10.6667 3.6665C5.89335 3.6665 3.66669 5.89317 3.66669 10.6665V17.3332C3.66669 23.3598 5.73335 24.3332 10.6667 24.3332H11.3334C12.0134 24.3332 12.7867 24.7198 13.2 25.2665L15.2 27.9332C15.6667 28.5465 16.3334 28.5465 16.8 27.9332L18.8 25.2665C19.24 24.6798 19.9334 24.3332 20.6667 24.3332H21.3334C26.1067 24.3332 28.3334 22.1065 28.3334 17.3332V10.6665C28.3334 5.89317 26.1067 3.6665 21.3334 3.6665H10.6667Z" fill="#428AF6"/>
<path d="M16 16.0002C15.2534 16.0002 14.6667 15.4002 14.6667 14.6668C14.6667 13.9335 15.2667 13.3335 16 13.3335C16.7334 13.3335 17.3334 13.9335 17.3334 14.6668C17.3334 15.4002 16.7467 16.0002 16 16.0002Z" fill="#428AF6"/>
<path d="M21.3333 16.0002C20.5867 16.0002 20 15.4002 20 14.6668C20 13.9335 20.6 13.3335 21.3333 13.3335C22.0667 13.3335 22.6667 13.9335 22.6667 14.6668C22.6667 15.4002 22.08 16.0002 21.3333 16.0002Z" fill="#428AF6"/>
<path d="M10.6666 16.0002C9.91998 16.0002 9.33331 15.4002 9.33331 14.6668C9.33331 13.9335 9.93331 13.3335 10.6666 13.3335C11.4 13.3335 12 13.9335 12 14.6668C12 15.4002 11.4133 16.0002 10.6666 16.0002Z" fill="#428AF6"/>
</svg>
