<svg width="32" height="32" viewBox="0 0 32 32" fill="none" xmlns="http://www.w3.org/2000/svg">
<path d="M22.6667 29H21.3334C20.7867 29 20.3334 28.5467 20.3334 28C20.3334 27.4533 20.7867 27 21.3334 27H22.6667C26.1067 27 28.3334 24.7733 28.3334 21.3333V10.6667C28.3334 7.22667 26.1067 5 22.6667 5H9.33335C5.89335 5 3.66669 7.22667 3.66669 10.6667V12C3.66669 12.5467 3.21335 13 2.66669 13C2.12002 13 1.66669 12.5467 1.66669 12V10.6667C1.66669 6.08 4.74669 3 9.33335 3H22.6667C27.2534 3 30.3334 6.08 30.3334 10.6667V21.3333C30.3334 25.92 27.2534 29 22.6667 29Z" fill="#428AF6"/>
<path d="M16.3869 28.0801C15.8936 28.0801 15.4669 27.7068 15.4003 27.2134C14.6669 21.5068 10.5069 17.3335 4.78691 16.6001C4.24025 16.5335 3.85359 16.0268 3.92025 15.4801C3.98692 14.9334 4.49358 14.5468 5.04025 14.6134C11.6802 15.4668 16.5336 20.3068 17.3736 26.9468C17.4402 27.4934 17.0536 28.0001 16.5069 28.0668C16.4803 28.0801 16.4269 28.0801 16.3869 28.0801Z" fill="#428AF6"/>
<path d="M11.9065 29.5067C11.4131 29.5067 10.9865 29.1334 10.9198 28.6401C10.3998 24.5734 7.42648 21.6001 3.35981 21.0801C2.81314 21.0134 2.42646 20.5067 2.49313 19.9601C2.5598 19.4134 3.06648 19.0267 3.61315 19.0934C8.61315 19.7334 12.2531 23.3867 12.8931 28.3734C12.9598 28.9201 12.5731 29.4267 12.0265 29.4934C11.9865 29.5067 11.9465 29.5067 11.9065 29.5067Z" fill="#428AF6"/>
<path d="M6.8403 30.3598C6.34697 30.3598 5.92029 29.9865 5.85362 29.4932C5.62696 27.6932 4.30697 26.3731 2.50697 26.1465C1.9603 26.0798 1.57362 25.5731 1.64029 25.0265C1.70695 24.4798 2.21364 24.0932 2.7603 24.1598C5.45364 24.5065 7.49363 26.5465 7.8403 29.2398C7.90697 29.7865 7.52029 30.2931 6.97362 30.3598C6.93362 30.3598 6.89363 30.3598 6.8403 30.3598Z" fill="#428AF6"/>
</svg>
