<svg width="32" height="32" viewBox="0 0 32 32" fill="none" xmlns="http://www.w3.org/2000/svg">
<path d="M6.66667 19.6668C4.64 19.6668 3 18.0268 3 16.0002C3 13.9735 4.64 12.3335 6.66667 12.3335C8.69333 12.3335 10.3333 13.9735 10.3333 16.0002C10.3333 18.0268 8.69333 19.6668 6.66667 19.6668ZM6.66667 14.3335C5.74667 14.3335 5 15.0802 5 16.0002C5 16.9202 5.74667 17.6668 6.66667 17.6668C7.58667 17.6668 8.33333 16.9202 8.33333 16.0002C8.33333 15.0802 7.58667 14.3335 6.66667 14.3335Z" fill="#428AF6"/>
<path d="M25.3333 19.6668C23.3067 19.6668 21.6667 18.0268 21.6667 16.0002C21.6667 13.9735 23.3067 12.3335 25.3333 12.3335C27.36 12.3335 29 13.9735 29 16.0002C29 18.0268 27.36 19.6668 25.3333 19.6668ZM25.3333 14.3335C24.4133 14.3335 23.6667 15.0802 23.6667 16.0002C23.6667 16.9202 24.4133 17.6668 25.3333 17.6668C26.2533 17.6668 27 16.9202 27 16.0002C27 15.0802 26.2533 14.3335 25.3333 14.3335Z" fill="#428AF6"/>
<path d="M16 19.6668C13.9733 19.6668 12.3333 18.0268 12.3333 16.0002C12.3333 13.9735 13.9733 12.3335 16 12.3335C18.0267 12.3335 19.6667 13.9735 19.6667 16.0002C19.6667 18.0268 18.0267 19.6668 16 19.6668ZM16 14.3335C15.08 14.3335 14.3333 15.0802 14.3333 16.0002C14.3333 16.9202 15.08 17.6668 16 17.6668C16.92 17.6668 17.6667 16.9202 17.6667 16.0002C17.6667 15.0802 16.92 14.3335 16 14.3335Z" fill="#428AF6"/>
</svg>
