<svg width="32" height="32" viewBox="0 0 32 32" fill="none" xmlns="http://www.w3.org/2000/svg">
<path d="M21.08 26.9069C20.7333 26.9069 20.3733 26.8935 19.9866 26.8535C19.2933 26.8002 18.5066 26.6669 17.6933 26.4669L15.4533 25.9335C9.30664 24.4802 7.29331 21.2268 8.73331 15.0935L10.04 9.50685C10.3333 8.24018 10.68 7.21352 11.1066 6.36018C13.4 1.62685 17.7866 2.05352 20.9066 2.78685L23.1333 3.30685C26.2533 4.04018 28.2266 5.20018 29.3333 6.97352C30.4266 8.74685 30.6 11.0268 29.8666 14.1468L28.56 19.7202C27.4133 24.6002 25.0266 26.9069 21.08 26.9069ZM17.4933 4.33352C15.2666 4.33352 13.8533 5.25352 12.9066 7.22685C12.56 7.94685 12.2533 8.84018 11.9866 9.96018L10.68 15.5468C9.49331 20.5869 10.8666 22.7869 15.9066 23.9869L18.1466 24.5202C18.8666 24.6935 19.5466 24.8002 20.16 24.8535C23.7866 25.2135 25.5866 23.6269 26.6 19.2669L27.9066 13.6935C28.5066 11.1202 28.4266 9.32018 27.6266 8.02685C26.8266 6.73352 25.2533 5.85352 22.6666 5.25352L20.44 4.73352C19.3333 4.46685 18.3466 4.33352 17.4933 4.33352Z" fill="#428AF6"/>
<path d="M11.1067 29.6667C7.68003 29.6667 5.49336 27.6134 4.09336 23.2801L2.38669 18.0134C0.493361 12.1467 2.18669 8.84007 8.02669 6.94673L10.1334 6.26673C10.8267 6.0534 11.3467 5.90673 11.8134 5.82673C12.2 5.74673 12.5734 5.8934 12.8 6.20007C13.0267 6.50673 13.0667 6.90673 12.9067 7.2534C12.56 7.96007 12.2534 8.8534 12 9.9734L10.6934 15.5601C9.5067 20.6001 10.88 22.8001 15.92 24.0001L18.16 24.5334C18.88 24.7067 19.56 24.8134 20.1734 24.8667C20.6 24.9067 20.9467 25.2001 21.0667 25.6134C21.1734 26.0267 21.0134 26.4534 20.6667 26.6934C19.7867 27.2934 18.68 27.8001 17.28 28.2534L15.1734 28.9467C13.64 29.4267 12.3067 29.6667 11.1067 29.6667ZM10.3734 8.2934L8.65336 8.8534C3.89336 10.3867 2.76003 12.6267 4.29336 17.4001L6.00003 22.6667C7.54669 27.4267 9.78669 28.5734 14.5467 27.0401L16.6534 26.3467C16.7334 26.3201 16.8 26.2934 16.88 26.2667L15.4667 25.9334C9.32003 24.4801 7.30669 21.2267 8.74669 15.0934L10.0534 9.50673C10.1467 9.08007 10.2534 8.66673 10.3734 8.2934Z" fill="#428AF6"/>
<path d="M23.32 14.0135C23.24 14.0135 23.16 14.0002 23.0667 13.9869L16.6 12.3469C16.0667 12.2135 15.7467 11.6669 15.88 11.1335C16.0133 10.6002 16.56 10.2802 17.0933 10.4135L23.56 12.0535C24.0933 12.1869 24.4133 12.7335 24.28 13.2669C24.1733 13.7069 23.76 14.0135 23.32 14.0135Z" fill="#428AF6"/>
<path d="M19.4133 18.5199C19.3333 18.5199 19.2533 18.5065 19.16 18.4932L15.28 17.5065C14.7467 17.3732 14.4267 16.8265 14.56 16.2932C14.6933 15.7599 15.24 15.4399 15.7733 15.5732L19.6533 16.5599C20.1867 16.6932 20.5067 17.2399 20.3733 17.7732C20.2667 18.2265 19.8667 18.5199 19.4133 18.5199Z" fill="#428AF6"/>
</svg>
