<svg width="32" height="32" viewBox="0 0 32 32" fill="none" xmlns="http://www.w3.org/2000/svg">
<path d="M16 30.3332C14.9467 30.3332 13.9467 29.7998 13.2533 28.8532L11.9067 27.0532C11.6267 26.6798 11.2533 26.4665 10.8533 26.4398C10.4533 26.4132 10.0533 26.5998 9.73332 26.9332L8.97332 26.2665L9.70666 26.9465C7.77332 28.9998 6.30666 28.8398 5.59999 28.5598C4.87999 28.2798 3.66666 27.3598 3.66666 24.3998V9.3865C3.66666 3.4665 5.37332 1.6665 10.96 1.6665H21.0267C26.6133 1.6665 28.32 3.4665 28.32 9.3865V24.3998C28.32 27.3465 27.1067 28.2665 26.3867 28.5598C25.68 28.8398 24.2133 28.9998 22.28 26.9465C21.96 26.5998 21.5467 26.4265 21.1467 26.4532C20.7467 26.4798 20.36 26.6932 20.08 27.0665L18.7333 28.8665C18.0533 29.7998 17.0533 30.3332 16 30.3332ZM10.7733 24.4398C10.8267 24.4398 10.8933 24.4398 10.9467 24.4398C11.9333 24.4932 12.8667 25.0132 13.4933 25.8532L14.8533 27.6532C15.5067 28.5198 16.5067 28.5198 17.16 27.6532L18.5067 25.8532C19.1333 25.0132 20.0667 24.4932 21.0667 24.4398C22.0667 24.3865 23.04 24.7998 23.76 25.5732C24.7733 26.6532 25.4267 26.7865 25.6667 26.6932C25.9867 26.5598 26.3333 25.7865 26.3333 24.3998V9.3865C26.3333 4.57317 25.4933 3.6665 21.04 3.6665H10.96C6.50666 3.6665 5.66666 4.57317 5.66666 9.3865V24.3998C5.66666 25.7998 6.01332 26.5732 6.33332 26.6932C6.57332 26.7865 7.22666 26.6532 8.23999 25.5732C8.93332 24.8398 9.83999 24.4398 10.7733 24.4398Z" fill="#428AF6"/>
<path d="M20 18.6667C19.2533 18.6667 18.6667 18.0667 18.6667 17.3333C18.6667 16.6 19.2667 16 20 16C20.7333 16 21.3333 16.6 21.3333 17.3333C21.3333 18.0667 20.7467 18.6667 20 18.6667Z" fill="#428AF6"/>
<path d="M12 12.0002C11.2533 12.0002 10.6667 11.4002 10.6667 10.6668C10.6667 9.9335 11.2667 9.3335 12 9.3335C12.7333 9.3335 13.3333 9.9335 13.3333 10.6668C13.3333 11.4002 12.7467 12.0002 12 12.0002Z" fill="#428AF6"/>
<path d="M11.5067 19.4002C11.2533 19.4002 11 19.3068 10.8 19.1068C10.4133 18.7202 10.4133 18.0802 10.8 17.6935L19.7733 8.72018C20.16 8.33351 20.8 8.33351 21.1867 8.72018C21.5733 9.10684 21.5733 9.74684 21.1867 10.1335L12.2133 19.1068C12.0267 19.3068 11.7733 19.4002 11.5067 19.4002Z" fill="#428AF6"/>
</svg>
