<svg width="32" height="32" viewBox="0 0 32 32" fill="none" xmlns="http://www.w3.org/2000/svg">
<path d="M16.0933 29.3069C14.2133 29.3069 12.32 28.5869 10.8933 27.1602L4.85333 21.1202C3.38666 19.6536 2.61333 17.6269 2.70666 15.5602L3.02666 8.89357C3.17333 5.7069 5.69333 3.1869 8.89333 3.0269L15.56 2.7069C17.6267 2.6269 19.6533 3.3869 21.12 4.85357L27.16 10.8936C30.0267 13.7602 30.0267 18.4402 27.16 21.3069L21.3067 27.1602C19.8667 28.5869 17.9867 29.3069 16.0933 29.3069ZM6.26666 19.6936L12.3067 25.7336C13.32 26.7469 14.6667 27.3069 16.0933 27.3069C17.52 27.3069 18.8667 26.7469 19.88 25.7336L25.7333 19.8802C26.7467 18.8669 27.3067 17.5202 27.3067 16.0936C27.3067 14.6669 26.7467 13.3202 25.7333 12.3069L19.6933 6.2669C18.6267 5.20023 17.1467 4.6269 15.6533 4.7069L8.98666 5.0269C6.81333 5.12023 5.12 6.81357 5.01333 8.97357L4.69333 15.6402C4.62666 17.1469 5.2 18.6269 6.26666 19.6936Z" fill="#428AF6"/>
<path d="M12.6666 17.0002C10.28 17.0002 8.33331 15.0535 8.33331 12.6668C8.33331 10.2802 10.28 8.3335 12.6666 8.3335C15.0533 8.3335 17 10.2802 17 12.6668C17 15.0535 15.0533 17.0002 12.6666 17.0002ZM12.6666 10.3335C11.3866 10.3335 10.3333 11.3868 10.3333 12.6668C10.3333 13.9468 11.3866 15.0002 12.6666 15.0002C13.9466 15.0002 15 13.9468 15 12.6668C15 11.3868 13.9466 10.3335 12.6666 10.3335Z" fill="#428AF6"/>
</svg>
