<svg width="32" height="32" viewBox="0 0 32 32" fill="none" xmlns="http://www.w3.org/2000/svg">
<path d="M28 27H14.6667C14.12 27 13.6667 26.5467 13.6667 26C13.6667 25.4533 14.12 25 14.6667 25H28C28.5467 25 29 25.4533 29 26C29 26.5467 28.5467 27 28 27Z" fill="#428AF6"/>
<path d="M28 17.6665H14.6667C14.12 17.6665 13.6667 17.2132 13.6667 16.6665C13.6667 16.1198 14.12 15.6665 14.6667 15.6665H28C28.5467 15.6665 29 16.1198 29 16.6665C29 17.2132 28.5467 17.6665 28 17.6665Z" fill="#428AF6"/>
<path d="M28 8.3335H14.6667C14.12 8.3335 13.6667 7.88016 13.6667 7.3335C13.6667 6.78683 14.12 6.3335 14.6667 6.3335H28C28.5467 6.3335 29 6.78683 29 7.3335C29 7.88016 28.5467 8.3335 28 8.3335Z" fill="#428AF6"/>
<path d="M5.33336 9.66659C5.08002 9.66659 4.82669 9.57326 4.62669 9.37326L3.29336 8.03992C2.90669 7.65326 2.90669 7.01325 3.29336 6.62659C3.68002 6.23992 4.32002 6.23992 4.70669 6.62659L5.33336 7.25326L8.62669 3.95992C9.01336 3.57326 9.65336 3.57326 10.04 3.95992C10.4267 4.34659 10.4267 4.98659 10.04 5.37326L6.04002 9.37326C5.84002 9.57326 5.58669 9.66659 5.33336 9.66659Z" fill="#428AF6"/>
<path d="M5.33336 19.0001C5.08002 19.0001 4.82669 18.9067 4.62669 18.7068L3.29336 17.3734C2.90669 16.9867 2.90669 16.3468 3.29336 15.9601C3.68002 15.5734 4.32002 15.5734 4.70669 15.9601L5.33336 16.5867L8.62669 13.2934C9.01336 12.9068 9.65336 12.9068 10.04 13.2934C10.4267 13.6801 10.4267 14.3201 10.04 14.7068L6.04002 18.7068C5.84002 18.9067 5.58669 19.0001 5.33336 19.0001Z" fill="#428AF6"/>
<path d="M5.33336 28.3331C5.08002 28.3331 4.82669 28.2398 4.62669 28.0398L3.29336 26.7064C2.90669 26.3198 2.90669 25.6798 3.29336 25.2931C3.68002 24.9064 4.32002 24.9064 4.70669 25.2931L5.33336 25.9198L8.62669 22.6264C9.01336 22.2398 9.65336 22.2398 10.04 22.6264C10.4267 23.0131 10.4267 23.6531 10.04 24.0398L6.04002 28.0398C5.84002 28.2398 5.58669 28.3331 5.33336 28.3331Z" fill="#428AF6"/>
</svg>
