<svg width="32" height="32" viewBox="0 0 32 32" fill="none" xmlns="http://www.w3.org/2000/svg">
<path d="M20.1733 25.4134H9.50665C8.95999 25.4134 8.50665 24.9601 8.50665 24.4134C8.50665 23.8667 8.95999 23.4134 9.50665 23.4134H20.1733C23.2933 23.4134 25.84 20.8667 25.84 17.7467C25.84 14.6267 23.2933 12.0801 20.1733 12.0801H5.50665C4.95999 12.0801 4.50665 11.6267 4.50665 11.0801C4.50665 10.5334 4.95999 10.0801 5.50665 10.0801H20.1733C24.4 10.0801 27.84 13.5201 27.84 17.7467C27.84 21.9734 24.4 25.4134 20.1733 25.4134Z" fill="#428AF6"/>
<path d="M8.57333 15.4132C8.32 15.4132 8.06666 15.3198 7.86666 15.1198L4.45333 11.7065C4.06666 11.3198 4.06666 10.6798 4.45333 10.2932L7.86666 6.87984C8.25333 6.49318 8.89333 6.49318 9.28 6.87984C9.66666 7.26651 9.66666 7.90651 9.28 8.29318L6.57333 10.9998L9.28 13.7065C9.66666 14.0932 9.66666 14.7332 9.28 15.1198C9.09333 15.3198 8.82666 15.4132 8.57333 15.4132Z" fill="#428AF6"/>
</svg>
