<svg width="32" height="32" viewBox="0 0 32 32" fill="none" xmlns="http://www.w3.org/2000/svg">
<path d="M22.6667 30.3335H9.33335C3.45335 30.3335 1.66669 28.5468 1.66669 22.6668V20.0002C1.66669 14.1202 3.45335 12.3335 9.33335 12.3335H22.6667C28.5467 12.3335 30.3334 14.1202 30.3334 20.0002V22.6668C30.3334 28.5468 28.5467 30.3335 22.6667 30.3335ZM9.33335 14.3335C4.56002 14.3335 3.66669 15.2402 3.66669 20.0002V22.6668C3.66669 27.4268 4.56002 28.3335 9.33335 28.3335H22.6667C27.44 28.3335 28.3334 27.4268 28.3334 22.6668V20.0002C28.3334 15.2402 27.44 14.3335 22.6667 14.3335H9.33335Z" fill="#428AF6"/>
<path d="M8 14.3332C7.45333 14.3332 7 13.8798 7 13.3332V10.6665C7 6.79984 7.93333 1.6665 16 1.6665C21.9733 1.6665 25 4.23984 25 9.33317C25 9.87984 24.5467 10.3332 24 10.3332C23.4533 10.3332 23 9.87984 23 9.33317C23 6.69317 22.2 3.6665 16 3.6665C10.1867 3.6665 9 6.4665 9 10.6665V13.3332C9 13.8798 8.54667 14.3332 8 14.3332Z" fill="#428AF6"/>
<path d="M16 25.6667C13.6134 25.6667 11.6667 23.72 11.6667 21.3333C11.6667 18.9467 13.6134 17 16 17C18.3867 17 20.3334 18.9467 20.3334 21.3333C20.3334 23.72 18.3867 25.6667 16 25.6667ZM16 19C14.72 19 13.6667 20.0533 13.6667 21.3333C13.6667 22.6133 14.72 23.6667 16 23.6667C17.28 23.6667 18.3334 22.6133 18.3334 21.3333C18.3334 20.0533 17.28 19 16 19Z" fill="#428AF6"/>
</svg>
