<svg width="32" height="32" viewBox="0 0 32 32" fill="none" xmlns="http://www.w3.org/2000/svg">
<path d="M8.25341 10.4133C7.93341 10.4133 7.64007 10.2666 7.44007 9.99994C7.21341 9.69327 7.18674 9.29323 7.36007 8.9599C7.58674 8.50656 7.90674 8.0666 8.32007 7.6666L12.6534 3.31992C14.8667 1.11992 18.4667 1.11992 20.6801 3.31992L23.0134 5.69329C24.0001 6.66663 24.6001 7.97329 24.6667 9.35996C24.6801 9.66663 24.5601 9.95993 24.3334 10.1599C24.1067 10.3599 23.8001 10.4533 23.5067 10.3999C23.2401 10.3599 22.9601 10.3466 22.6667 10.3466H9.33341C9.01341 10.3466 8.70674 10.3733 8.40007 10.4133C8.36007 10.4133 8.30674 10.4133 8.25341 10.4133ZM10.4801 8.33327H22.4267C22.2534 7.87994 21.9734 7.46661 21.6001 7.09328L19.2534 4.71991C17.8267 3.30657 15.4934 3.30657 14.0534 4.71991L10.4801 8.33327Z" fill="#428AF6"/>
<path d="M6.66668 31.6667C4.45334 31.6667 2.37334 30.4933 1.25334 28.5867C0.653344 27.6267 0.333344 26.4933 0.333344 25.3333C0.333344 21.84 3.17334 19 6.66668 19C10.16 19 13 21.84 13 25.3333C13 26.4933 12.68 27.6267 12.08 28.6C10.96 30.4933 8.88001 31.6667 6.66668 31.6667ZM6.66668 21C4.28001 21 2.33334 22.9467 2.33334 25.3333C2.33334 26.12 2.54668 26.8933 2.96001 27.56C3.74668 28.8933 5.13334 29.6667 6.66668 29.6667C8.20001 29.6667 9.58668 28.88 10.3733 27.5733C10.7867 26.8933 11 26.1333 11 25.3333C11 22.9467 9.05334 21 6.66668 21Z" fill="#428AF6"/>
<path d="M8.65302 26.3066H4.67969C4.13302 26.3066 3.67969 25.8533 3.67969 25.3066C3.67969 24.76 4.13302 24.3066 4.67969 24.3066H8.66635C9.21302 24.3066 9.66635 24.76 9.66635 25.3066C9.66635 25.8533 9.21302 26.3066 8.65302 26.3066Z" fill="#428AF6"/>
<path d="M6.66666 28.3465C6.11999 28.3465 5.66666 27.8932 5.66666 27.3465V23.3599C5.66666 22.8132 6.11999 22.3599 6.66666 22.3599C7.21332 22.3599 7.66666 22.8132 7.66666 23.3599V27.3465C7.66666 27.9065 7.21332 28.3465 6.66666 28.3465Z" fill="#428AF6"/>
<path d="M22.6667 30.3335H10.1733C9.74665 30.3335 9.37332 30.0668 9.22665 29.6802C9.07998 29.2802 9.19998 28.8402 9.51998 28.5735C9.83998 28.3068 10.1333 27.9602 10.3467 27.5868C10.7733 26.9068 10.9866 26.1335 10.9866 25.3468C10.9866 22.9602 9.03998 21.0135 6.65332 21.0135C5.41332 21.0135 4.22665 21.5468 3.39998 22.4935C3.11998 22.8002 2.67998 22.9202 2.29332 22.7735C1.90665 22.6269 1.63998 22.2535 1.63998 21.8402V16.0002C1.63998 11.8935 4.17332 8.92017 8.10665 8.42684C8.46665 8.37351 8.87998 8.3335 9.30665 8.3335H22.64C22.96 8.3335 23.3733 8.34683 23.8 8.41349C27.7333 8.86683 30.3066 11.8535 30.3066 16.0002V22.6668C30.3333 27.2535 27.2533 30.3335 22.6667 30.3335ZM12.24 28.3335H22.6667C26.1066 28.3335 28.3333 26.1068 28.3333 22.6668V16.0002C28.3333 12.8802 26.5066 10.7335 23.5466 10.3868C23.2266 10.3335 22.9467 10.3335 22.6667 10.3335H9.33332C9.01332 10.3335 8.70665 10.3601 8.39998 10.4001C5.46665 10.7735 3.66665 12.9068 3.66665 16.0002V19.7602C4.57332 19.2668 5.61332 19.0002 6.66665 19.0002C10.16 19.0002 13 21.8402 13 25.3335C13 26.3868 12.7333 27.4268 12.24 28.3335Z" fill="#428AF6"/>
<path d="M29.3333 22.9998H25.3333C23.3067 22.9998 21.6667 21.3598 21.6667 19.3332C21.6667 17.3065 23.3067 15.6665 25.3333 15.6665H29.3333C29.88 15.6665 30.3333 16.1198 30.3333 16.6665C30.3333 17.2132 29.88 17.6665 29.3333 17.6665H25.3333C24.4133 17.6665 23.6667 18.4132 23.6667 19.3332C23.6667 20.2532 24.4133 20.9998 25.3333 20.9998H29.3333C29.88 20.9998 30.3333 21.4532 30.3333 21.9998C30.3333 22.5465 29.88 22.9998 29.3333 22.9998Z" fill="#428AF6"/>
</svg>
